<svg width="284" height="246" viewBox="0 0 284 246" fill="none" xmlns="http://www.w3.org/2000/svg">
<path d="M248.818 196.012C259.667 175.031 268.492 149.302 268.492 121.882C268.492 108.109 264.189 92.4516 256.983 80.0005C250.681 69.113 238.996 55.0466 219.099 49.8605C193.918 43.298 168.405 49.4179 147.905 54.336C140.497 56.1132 133.499 57.7918 127.505 58.6219C114.063 60.4819 99.861 60.2094 87.6527 59.7377H87.6447C85.7346 59.6638 83.8685 59.5854 82.0672 59.5095C74.354 59.1839 56.5905 58.8716 56.5905 58.8716C55.6211 54.7508 53.4112 51.3747 50.6527 49.8162C49.484 49.167 48.2082 48.8379 46.9188 48.8531C45.6294 48.8683 44.3593 49.2274 43.2017 49.9041C39.4074 51.9519 37.588 56.502 38.4481 61.6388C32.3687 64.7595 26.4293 70.9711 22.8271 75.8557C19.7343 80.0492 17.1116 86.6705 14.5743 93.0737C11.9909 99.5951 9.31994 106.338 6.64684 109.061C5.9925 109.722 5.41381 110.483 4.92562 111.323C4.91713 111.323 4.90864 111.318 4.89962 111.316C4.34066 111.182 3.76434 111.188 3.20763 111.335C2.65092 111.482 2.12611 111.766 1.66685 112.168C1.20759 112.571 0.824019 113.084 0.540739 113.673C0.257459 114.263 0.0807214 114.917 0.0218613 115.592C-0.0369987 116.268 0.0233178 116.951 0.198943 117.597C0.374568 118.244 0.661624 118.839 1.0417 119.346C1.42178 119.852 1.88649 120.258 2.40603 120.538C2.92557 120.818 3.48848 120.966 4.05864 120.971C4.54128 122.763 5.19313 124.483 6.00165 126.1C11.3807 137.133 19.8898 143.992 27.3971 150.042C31.5356 153.378 35.4439 156.529 38.472 160.048C40.7437 162.78 42.7198 165.84 44.3541 169.157C44.3721 169.199 44.396 169.235 44.4156 169.276C47.4893 175.404 49.9274 182.881 50.3826 190.022C50.9583 199.044 52.3203 223.404 52.7485 231.098C51.2693 231.659 49.8817 232.518 48.646 233.637C47.7266 234.465 47.0521 235.62 46.7199 236.935C46.3877 238.251 46.4151 239.658 46.798 240.953C47.1615 242.275 47.8684 243.425 48.8166 244.237C49.7647 245.049 50.905 245.481 52.0725 245.469H77.215C78.025 245.471 78.8253 245.26 79.5597 244.853C80.2941 244.446 80.9446 243.852 81.4655 243.113C87.026 235.234 100.896 214.929 109.674 196.507C143.654 196.467 166.86 194.998 180.397 192.018C182.413 207.207 185.076 224.514 186.05 230.756C185.209 231.225 184.415 231.801 183.68 232.475C182.674 233.4 181.936 234.676 181.57 236.124C181.203 237.573 181.226 239.123 181.636 240.555C182.045 241.988 182.821 243.232 183.853 244.113C184.886 244.994 186.124 245.468 187.394 245.468H210.961C212.355 245.467 213.706 244.896 214.79 243.852C222.562 236.34 236.783 219.18 248.642 196.355C248.707 196.245 248.766 196.131 248.818 196.012ZM82.7384 123.819C75.1366 142.801 61.7558 158.156 47.5021 164.419C45.8655 161.368 43.9567 158.537 41.8089 155.976C38.4747 152.101 34.3944 148.812 30.0744 145.33C22.6462 139.342 14.9627 133.15 10.1323 123.242C7.19176 117.211 8.29007 114.875 9.75131 113.387C13.2033 109.871 15.9677 102.892 18.8949 95.5027C21.29 89.4555 23.7668 83.2028 26.416 79.6124C29.6218 75.2646 35.323 69.2521 40.84 66.6157C41.382 66.3558 41.8693 65.9569 42.2673 65.4474C45.2832 70.6999 52.4662 69.9254 54.2692 65.1426C54.3949 64.799 54.4882 64.4398 54.5472 64.0717C62.1394 65.2482 74.2368 64.8714 81.899 65.1964C83.1979 65.2514 84.5371 65.307 85.8932 65.3614C91.4809 84.0582 90.3788 104.741 82.7384 123.819ZM229.255 175.936C224.804 174.95 202.711 170.969 184.181 183.909C183.3 176.773 182.699 170.838 182.699 167.937C182.699 167.183 182.447 166.459 182 165.926C181.552 165.392 180.945 165.092 180.311 165.092C179.678 165.092 179.071 165.392 178.623 165.926C178.175 166.459 177.924 167.183 177.924 167.937C177.924 171.306 178.645 178.248 179.668 186.393C168.107 188.967 149.042 190.399 121.715 190.739C127.155 186.803 131.493 181.153 134.661 173.804C139.073 163.576 141.023 150.251 140.3 135.268C139.486 118.387 128.6 95.65 119.852 77.3825C117.826 73.1523 115.886 69.1004 114.27 65.5144C118.871 65.2899 123.497 64.9043 128.054 64.2733C134.245 63.4173 141.337 61.7153 148.845 59.911C168.907 55.0978 193.875 49.1075 218.076 55.4165C251.326 64.0856 263.716 100.786 263.716 121.882C263.716 146.163 256.475 169.109 247.132 188.388C244.389 183.5 238.673 178.023 229.255 175.936Z" fill="black"/>
<path d="M32.0017 89.2392C22.3919 84.8144 16.8025 97.2411 22.9183 104.539C26.2626 108.527 29.4418 117.769 36.7085 117.003C48.2537 115.788 47.1906 96.2253 32.0017 89.2392ZM27.6484 101.263C27.0785 101.263 26.5214 101.059 26.0475 100.676C25.5737 100.294 25.2044 99.7506 24.9863 99.1148C24.7682 98.479 24.7112 97.7794 24.8223 97.1045C24.9335 96.4296 25.2079 95.8096 25.6109 95.323C26.0139 94.8364 26.5273 94.505 27.0862 94.3708C27.6452 94.2365 28.2245 94.3055 28.751 94.5688C29.2775 94.8321 29.7275 95.2781 30.0442 95.8503C30.3608 96.4225 30.5298 97.0952 30.5298 97.7833C30.5296 98.706 30.226 99.5909 29.6857 100.243C29.1453 100.896 28.4125 101.262 27.6484 101.263Z" fill="black"/>
<path d="M135.331 201.951C135.301 201.811 135.233 201.687 135.136 201.599C135.04 201.511 134.921 201.464 134.799 201.465C132.193 201.498 118.399 201.668 112.55 201.696C112.46 201.695 112.372 201.722 112.293 201.774C112.214 201.825 112.148 201.9 112.101 201.99C108.342 209.044 101.747 220.019 97.3921 227.164C97.3204 227.282 97.285 227.425 97.2918 227.57C97.2986 227.715 97.3472 227.852 97.4295 227.96L103.515 236.012L103.45 236.127C103.429 236.172 103.402 236.216 103.38 236.261C102.905 237.179 102.646 238.23 102.63 239.306C102.613 240.382 102.84 241.443 103.286 242.381C103.732 243.319 104.382 244.099 105.169 244.642C105.955 245.185 106.85 245.471 107.762 245.47H133.641C134.325 245.469 135.003 245.307 135.633 244.993C136.264 244.679 136.835 244.219 137.313 243.641C137.791 243.062 138.166 242.376 138.416 241.624C138.666 240.872 138.787 240.068 138.77 239.26C138.683 235.097 138.456 228.562 137.892 221.47C137.426 214.901 136.57 208.379 135.331 201.951Z" fill="black"/>
<path d="M262.923 178.544C262.888 178.422 262.824 178.316 262.738 178.239C262.652 178.163 262.549 178.12 262.443 178.116C262.336 178.113 262.231 178.148 262.142 178.218C262.053 178.288 261.983 178.39 261.942 178.509C261.238 180.589 260.447 182.625 259.574 184.608C252.27 201.22 243.413 216.754 233.177 230.901C233.09 231.02 233.043 231.174 233.045 231.334C233.047 231.493 233.099 231.645 233.19 231.76L234.959 234.026C234.439 234.773 234.003 235.6 233.662 236.486C233.295 237.466 233.139 238.541 233.207 239.614C233.275 240.686 233.565 241.72 234.051 242.62C234.483 243.476 235.086 244.185 235.804 244.684C236.522 245.182 237.331 245.452 238.158 245.47H265.024C265.688 245.469 266.345 245.308 266.956 244.995C267.567 244.683 268.121 244.225 268.584 243.648C269.048 243.072 269.411 242.39 269.654 241.64C269.897 240.891 270.014 240.09 269.999 239.285C269.733 226.33 268.499 197.618 262.923 178.544Z" fill="black"/>
</svg>
