<svg width="31" height="11" viewBox="0 0 31 11" fill="none" xmlns="http://www.w3.org/2000/svg">
<g id="rs_school_js 1" clip-path="url(#clip0_428_1004)">
<path id="Vector" d="M16.4171 3.5967L17.8444 3.50727C17.877 3.73348 17.9367 3.90182 18.0344 4.02281C18.1917 4.21219 18.4088 4.30688 18.6964 4.30688C18.9081 4.30688 19.0763 4.25954 19.1903 4.15959C19.2988 4.08068 19.3639 3.95442 19.3639 3.82291C19.3639 3.69666 19.3043 3.57566 19.2011 3.49675C19.0926 3.40206 18.8375 3.30737 18.4359 3.2232C17.7793 3.08117 17.3071 2.89178 17.0304 2.6498C16.7536 2.42359 16.5962 2.09217 16.6071 1.73971C16.6071 1.49773 16.6831 1.25574 16.8242 1.05584C16.987 0.829632 17.2095 0.650771 17.4754 0.55082C17.763 0.429826 18.1646 0.366699 18.6693 0.366699C19.288 0.366699 19.7601 0.477172 20.0857 0.703377C20.4113 0.924322 20.6067 1.28204 20.6664 1.77128L19.2554 1.85019C19.2174 1.63976 19.1414 1.48721 19.0166 1.38725C18.8918 1.2873 18.729 1.23996 18.5173 1.23996C18.3437 1.23996 18.2134 1.27678 18.1266 1.34517C18.0452 1.4083 17.9909 1.50299 17.9964 1.6082C17.9964 1.68711 18.0398 1.76076 18.1049 1.8081C18.1755 1.87123 18.3437 1.9291 18.6096 1.9817C19.2663 2.11848 19.733 2.25525 20.0206 2.39729C20.3082 2.53932 20.5145 2.71292 20.6393 2.91809C20.7695 3.12851 20.8346 3.3705 20.8292 3.61775C20.8292 3.91234 20.7424 4.20693 20.5687 4.45418C20.3896 4.71195 20.14 4.91185 19.8469 5.03285C19.5376 5.16436 19.1469 5.23275 18.6802 5.23275C17.8553 5.23275 17.2854 5.08019 16.9653 4.76982C16.6451 4.45944 16.4551 4.07016 16.4171 3.5967ZM1.27061 5.15384V0.450869H3.77242C4.2337 0.450869 4.59188 0.487693 4.83609 0.566602C5.07488 0.64025 5.28653 0.792807 5.42763 0.997971C5.58501 1.22418 5.66098 1.48721 5.65556 1.76076C5.67184 2.22369 5.42763 2.66558 5.00975 2.89704C4.84695 2.98647 4.66786 3.0496 4.48334 3.08117C4.61901 3.11799 4.75469 3.18112 4.87408 3.25477C4.96634 3.32841 5.04231 3.41258 5.11286 3.50201C5.19427 3.59144 5.26482 3.69139 5.32451 3.79661L6.05172 5.1591H4.34767L3.54449 3.71244C3.44137 3.52832 3.35454 3.40732 3.27314 3.34946C3.1646 3.27581 3.03435 3.23898 2.90411 3.23898H2.77386V5.14858H1.27061V5.15384ZM2.77386 2.3552H3.40881C3.54449 2.34468 3.67473 2.32364 3.80498 2.29208C3.90266 2.27629 3.98949 2.22369 4.04919 2.14478C4.19572 1.9554 4.17401 1.68711 3.99492 1.52403C3.89723 1.44512 3.70729 1.40304 3.43595 1.40304H2.77386V2.3552ZM0.928711 9.18345L2.35599 9.09402C2.38855 9.32023 2.44825 9.48857 2.54593 9.60956C2.69789 9.79894 2.92039 9.8989 3.20802 9.8989C3.41967 9.8989 3.5879 9.85155 3.70187 9.7516C3.8104 9.66743 3.87553 9.54644 3.87553 9.41492C3.87553 9.28867 3.81583 9.16767 3.71272 9.08876C3.60418 8.99407 3.34912 8.89938 2.9421 8.81521C2.28544 8.67318 1.8133 8.4838 1.53653 8.24181C1.25975 8.0156 1.10237 7.68419 1.11323 7.33173C1.11323 7.08974 1.1892 6.84775 1.3303 6.64785C1.49311 6.42164 1.71561 6.24278 1.98153 6.14283C2.26916 6.02184 2.67075 5.95871 3.17545 5.95871C3.79412 5.95871 4.26627 6.06918 4.59188 6.29539C4.9175 6.52159 5.10744 6.87405 5.16713 7.36329L3.75613 7.4422C3.71815 7.23177 3.64217 7.07922 3.51735 6.97927C3.39796 6.87931 3.22972 6.83197 3.01807 6.83723C2.84441 6.83723 2.71417 6.87405 2.62734 6.9477C2.54051 7.01083 2.49166 7.10552 2.49709 7.21073C2.49709 7.28964 2.54051 7.36329 2.60563 7.41063C2.67618 7.47376 2.84441 7.53163 3.11033 7.58423C3.76699 7.72101 4.2337 7.85778 4.52133 7.99982C4.80896 8.14186 5.01518 8.31546 5.14 8.52062C5.27024 8.73104 5.33537 8.97303 5.33537 9.21502C5.33537 9.50961 5.24311 9.79894 5.07488 10.0462C4.89579 10.304 4.64615 10.5039 4.3531 10.6249C4.04376 10.7564 3.65302 10.8248 3.18631 10.8248C2.36142 10.8248 1.79159 10.6722 1.4714 10.3618C1.15121 10.0462 0.972126 9.65691 0.928711 9.18345Z" fill="#CAC4D0"/>
<path id="Vector_2" d="M7.71767 8.90582L9.03099 9.28984C8.96044 9.61074 8.81391 9.91585 8.61312 10.1841C8.4286 10.4209 8.18439 10.605 7.90762 10.726C7.62542 10.847 7.26724 10.9101 6.83309 10.9101C6.30668 10.9101 5.87252 10.8365 5.54148 10.6892C5.20501 10.5419 4.91739 10.2788 4.67317 9.90533C4.42896 9.53183 4.30957 9.05312 4.30957 8.46919C4.30957 7.69062 4.52122 7.09091 4.94995 6.67533C5.37867 6.25974 5.98106 6.04932 6.76254 6.04932C7.37578 6.04932 7.85335 6.17031 8.2061 6.40704C8.55342 6.64902 8.81391 7.01727 8.98757 7.51176L7.66341 7.79583C7.63084 7.68536 7.582 7.57489 7.51688 7.4802C7.43548 7.36973 7.33236 7.28556 7.20754 7.22243C7.08273 7.1593 6.94163 7.133 6.80053 7.133C6.45863 7.133 6.19814 7.26451 6.01905 7.5328C5.88338 7.72745 5.81283 8.03782 5.81283 8.45867C5.81283 8.97947 5.89423 9.33719 6.05704 9.53183C6.21985 9.72647 6.44778 9.82116 6.74626 9.82116C7.03388 9.82116 7.25096 9.74225 7.39749 9.5897C7.54401 9.42662 7.65255 9.20041 7.71767 8.90582ZM10.7839 6.12823H12.2817V7.77479H13.9206V6.12823H15.4293V10.8312H13.9206V8.92686H12.2817V10.8312H10.7839V6.12823Z" fill="#CAC4D0"/>
<path id="Vector_3" d="M15.2236 8.4796C15.2236 7.71155 15.4461 7.11185 15.8857 6.68574C16.3253 6.25963 16.944 6.04395 17.7309 6.04395C18.5395 6.04395 19.1581 6.25437 19.5977 6.67522C20.0373 7.09606 20.2544 7.68525 20.2544 8.44278C20.2544 8.99514 20.1567 9.44229 19.9668 9.79475C19.7822 10.1419 19.4946 10.426 19.1419 10.6154C18.7783 10.81 18.3278 10.91 17.7906 10.91C17.2424 10.91 16.792 10.8258 16.4338 10.6575C16.0648 10.4786 15.7609 10.1998 15.5601 9.85788C15.3376 9.48963 15.2236 9.03196 15.2236 8.4796ZM16.7215 8.48486C16.7215 8.95831 16.8137 9.30025 16.9928 9.51068C17.1719 9.71584 17.4215 9.82105 17.7363 9.82105C18.0565 9.82105 18.3061 9.7211 18.4852 9.51594C18.6643 9.31077 18.7511 8.94779 18.7511 8.42173C18.7511 7.97984 18.6589 7.65369 18.4744 7.45378C18.2898 7.24862 18.0402 7.14867 17.7254 7.14867C17.4487 7.13815 17.1828 7.25388 16.9982 7.45904C16.8137 7.66421 16.7215 8.00615 16.7215 8.48486ZM21.7902 8.4796C21.7902 7.71155 22.0127 7.11185 22.4523 6.68574C22.8919 6.25963 23.5105 6.04395 24.2974 6.04395C25.1061 6.04395 25.7301 6.25437 26.1643 6.67522C26.5985 7.09606 26.821 7.68525 26.821 8.44278C26.821 8.99514 26.7233 9.44229 26.5333 9.79475C26.3488 10.1419 26.0612 10.426 25.7084 10.6154C25.3448 10.81 24.8944 10.91 24.3571 10.91C23.809 10.91 23.3586 10.8258 23.0004 10.6575C22.6314 10.4786 22.3275 10.1998 22.1267 9.85788C21.9042 9.48963 21.7902 9.03196 21.7902 8.4796ZM23.288 8.48486C23.288 8.95831 23.3803 9.30025 23.5594 9.51068C23.7385 9.71584 23.9881 9.82105 24.3029 9.82105C24.6231 9.82105 24.8727 9.7211 25.0518 9.51594C25.2309 9.31077 25.3177 8.94779 25.3177 8.42173C25.3177 7.97984 25.2254 7.65369 25.0409 7.45378C24.8564 7.24862 24.6068 7.14867 24.292 7.14867C24.0152 7.13815 23.7439 7.25388 23.5648 7.45904C23.3803 7.66421 23.288 8.00615 23.288 8.48486Z" fill="#CAC4D0"/>
<path id="Vector_4" d="M26.7291 6.01953H28.2269V9.56517H30.5659V10.7225H26.7236V6.01953H26.7291Z" fill="#CAC4D0"/>
<path id="Vector_5" d="M25.0126 5.85646C26.5206 4.75489 26.9856 2.88755 26.0512 1.68565C25.1168 0.48374 23.1369 0.4024 21.6289 1.50397C20.1209 2.60554 19.6559 4.47287 20.5903 5.67478C21.5246 6.87668 23.5046 6.95802 25.0126 5.85646Z" fill="white"/>
<g id="Clip path group">
<mask id="mask0_428_1004" style="mask-type:luminance" maskUnits="userSpaceOnUse" x="20" y="0" width="7" height="7">
<g id="SVGID_2_">
<path id="Vector_6" d="M25.0126 5.85646C26.5206 4.75489 26.9856 2.88755 26.0512 1.68565C25.1168 0.48374 23.1369 0.4024 21.6289 1.50397C20.1209 2.60554 19.6559 4.47287 20.5903 5.67478C21.5246 6.87668 23.5046 6.95802 25.0126 5.85646Z" fill="white"/>
</g>
</mask>
<g mask="url(#mask0_428_1004)">
<g id="Group">
<path id="Vector_7" d="M16.7441 3.08398L24.5368 -2.60844L29.9291 4.32781L22.1364 10.0202L16.7441 3.08398Z" fill="white"/>
<g id="Layer_2_1_">
<g id="Clip path group_2">
<mask id="mask1_428_1004" style="mask-type:luminance" maskUnits="userSpaceOnUse" x="16" y="-3" width="14" height="14">
<g id="SVGID_4_">
<path id="Vector_8" d="M16.7441 3.08398L24.5368 -2.60844L29.9291 4.32781L22.1364 10.0202L16.7441 3.08398Z" fill="white"/>
</g>
</mask>
<g mask="url(#mask1_428_1004)">
<g id="Layer_1-2">
<path id="Vector_9" d="M25.0126 5.85646C26.5206 4.75489 26.9856 2.88755 26.0512 1.68565C25.1168 0.48374 23.1369 0.4024 21.6289 1.50397C20.1209 2.60554 19.6559 4.47287 20.5903 5.67478C21.5246 6.87668 23.5046 6.95802 25.0126 5.85646Z" fill="white"/>
<g id="Clip path group_3">
<mask id="mask2_428_1004" style="mask-type:luminance" maskUnits="userSpaceOnUse" x="20" y="0" width="7" height="7">
<g id="SVGID_6_">
<path id="Vector_10" d="M25.0126 5.85646C26.5206 4.75489 26.9856 2.88755 26.0512 1.68565C25.1168 0.48374 23.1369 0.4024 21.6289 1.50397C20.1209 2.60554 19.6559 4.47287 20.5903 5.67478C21.5246 6.87668 23.5046 6.95802 25.0126 5.85646Z" fill="white"/>
</g>
</mask>
<g mask="url(#mask2_428_1004)">
<g id="Group_2">
<path id="Vector_11" d="M18.9141 3.54736L24.3707 -0.438512L27.7576 3.91823L22.3009 7.90411L18.9141 3.54736Z" fill="#211F26"/>
<g id="Clip path group_4">
<mask id="mask3_428_1004" style="mask-type:luminance" maskUnits="userSpaceOnUse" x="18" y="-1" width="10" height="9">
<g id="SVGID_8_">
<path id="Vector_12" d="M18.9141 3.54736L24.3707 -0.438512L27.7576 3.91823L22.3009 7.90411L18.9141 3.54736Z" fill="white"/>
</g>
</mask>
<g mask="url(#mask3_428_1004)">
<g id="Group_3">
<path id="Vector_13" d="M25.0126 5.85694C26.5206 4.75538 26.9856 2.88804 26.0512 1.68613C25.1168 0.484229 23.1369 0.402889 21.6289 1.50446C20.1209 2.60603 19.6559 4.47336 20.5903 5.67527C21.5246 6.87717 23.5046 6.95851 25.0126 5.85694Z" fill="white"/>
</g>
</g>
</g>
<path id="Vector_14" d="M18.9141 3.54736L24.3707 -0.438512L27.7576 3.91823L22.3009 7.90411L18.9141 3.54736Z" fill="white"/>
<g id="Clip path group_5">
<mask id="mask4_428_1004" style="mask-type:luminance" maskUnits="userSpaceOnUse" x="18" y="-1" width="10" height="9">
<g id="SVGID_10_">
<path id="Vector_15" d="M18.9141 3.54736L24.3707 -0.438512L27.7576 3.91823L22.3009 7.90411L18.9141 3.54736Z" fill="white"/>
</g>
</mask>
<g mask="url(#mask4_428_1004)">
<g id="Group_4">
<path id="Vector_16" d="M25.0126 5.85694C26.5206 4.75538 26.9856 2.88804 26.0512 1.68613C25.1168 0.484229 23.1369 0.402889 21.6289 1.50446C20.1209 2.60603 19.6559 4.47336 20.5903 5.67527C21.5246 6.87717 23.5046 6.95851 25.0126 5.85694Z" fill="#211F26"/>
</g>
</g>
</g>
</g>
</g>
</g>
<path id="Vector_17" d="M21.7955 3.33428L22.3382 2.96604L23.0057 3.88665C23.1196 4.03394 23.2065 4.19176 23.2716 4.36536C23.3096 4.49688 23.2987 4.63891 23.2445 4.76517C23.1739 4.92298 23.06 5.0545 22.908 5.14919C22.7289 5.27018 22.577 5.33857 22.4467 5.35961C22.3219 5.38066 22.1916 5.35961 22.0723 5.30701C21.942 5.24388 21.828 5.15445 21.7412 5.03872L22.2079 4.61787C22.2459 4.67574 22.2948 4.72834 22.349 4.77043C22.387 4.79673 22.4304 4.81251 22.4793 4.81251C22.5173 4.81251 22.5552 4.79673 22.5824 4.77569C22.6367 4.74412 22.6746 4.681 22.6692 4.61787C22.6529 4.52844 22.6149 4.43901 22.5552 4.37062L21.7955 3.33428ZM23.4236 3.91821L23.9174 3.53945C23.9717 3.60257 24.0422 3.64992 24.1182 3.67622C24.2267 3.70779 24.3407 3.68674 24.433 3.61836C24.4981 3.57627 24.5524 3.5184 24.5741 3.44476C24.6066 3.35007 24.5524 3.24485 24.4547 3.21329C24.4384 3.20803 24.4221 3.20277 24.4058 3.20277C24.3407 3.19751 24.2267 3.22381 24.0585 3.2922C23.7817 3.40267 23.5647 3.44476 23.4018 3.42897C23.2445 3.41319 23.0979 3.33428 23.0111 3.20277C22.946 3.11334 22.9134 3.00813 22.908 2.90292C22.908 2.78192 22.9406 2.66093 23.0111 2.56098C23.1142 2.41894 23.239 2.29795 23.391 2.20326C23.6189 2.0507 23.8197 1.97705 23.9934 1.97705C24.167 1.97705 24.3299 2.05596 24.4818 2.21904L23.9934 2.59254C23.8957 2.47155 23.7112 2.44524 23.5864 2.53993L23.5701 2.55572C23.5158 2.58728 23.4778 2.63462 23.4561 2.69249C23.4398 2.73458 23.4507 2.78192 23.4778 2.81875C23.4995 2.84505 23.5321 2.86609 23.5701 2.86609C23.6135 2.87135 23.6895 2.85031 23.798 2.80296C24.0694 2.69249 24.2756 2.62936 24.4167 2.60832C24.5361 2.58728 24.6609 2.5978 24.7749 2.64515C24.878 2.68723 24.9648 2.76088 25.0245 2.85031C25.1005 2.95552 25.1439 3.08178 25.1493 3.21329C25.1547 3.35007 25.1168 3.48158 25.0408 3.59731C24.9431 3.73935 24.8183 3.86034 24.6717 3.95503C24.3733 4.15494 24.1291 4.23911 23.9337 4.20754C23.722 4.17598 23.5484 4.07077 23.4236 3.91821Z" fill="#CAC4D0"/>
</g>
</g>
</g>
</g>
</g>
</g>
</g>
</g>
<defs>
<clipPath id="clip0_428_1004">
<rect width="30" height="10.8" fill="white" transform="translate(0.5 0.109863)"/>
</clipPath>
</defs>
</svg>
