<svg id="svg" xmlns="http://www.w3.org/2000/svg" xmlns:xlink="http://www.w3.org/1999/xlink" width="400" height="439.46188340807174" viewBox="0, 0, 400,439.46188340807174"><g id="svgg"><path id="path0" d="M350.673 0.532 C 346.504 1.434,322.674 7.090,282.063 16.817 C 164.518 44.972,145.143 49.853,139.238 52.800 C 129.373 57.723,120.780 68.401,117.471 79.851 C 115.993 84.964,115.762 102.000,115.726 208.417 L 115.695 302.259 114.686 302.030 C 109.184 300.779,95.640 300.436,87.352 301.336 C 27.394 307.853,-15.656 362.753,5.592 405.605 C 19.453 433.561,55.974 446.018,95.740 436.354 C 128.216 428.461,157.803 401.805,164.841 374.098 C 166.610 367.132,166.737 360.299,167.015 256.951 C 167.158 203.800,167.402 156.839,167.558 152.592 L 167.840 144.871 169.234 144.418 C 172.329 143.412,244.299 125.990,305.381 111.461 C 344.102 102.250,347.027 101.586,347.371 101.930 C 348.262 102.821,348.451 118.110,348.335 179.742 C 348.193 254.715,348.387 250.109,345.407 249.180 C 342.646 248.319,321.028 248.518,315.291 249.457 C 277.174 255.696,245.952 279.993,235.233 311.757 C 231.703 322.217,232.441 341.579,236.723 350.846 C 256.475 393.600,323.588 400.045,368.851 363.535 C 383.883 351.409,396.163 332.314,398.030 318.161 C 400.547 299.074,400.725 41.391,398.226 32.766 C 392.267 12.192,369.164 -3.467,350.673 0.532 " stroke="none" fill="#000000" fill-rule="evenodd"></path></g></svg>