<svg width="33" height="37" viewBox="0 0 33 37" fill="none" xmlns="http://www.w3.org/2000/svg">
<path fill-rule="evenodd" clip-rule="evenodd" d="M24.3978 31.6248C23.9372 29.9806 22.5635 28.0496 21.4935 25.9642C22.4107 27.7517 23.3278 29.5393 24.3978 31.6248ZM26.9819 31.4368C25.4554 29.2079 24.5362 26.67 23.617 24.132C22.8548 23.3928 22.2475 23.7019 21.6402 24.0109C20.5784 24.927 19.5146 25.0927 20.7334 25.9753C22.2599 28.2042 23.3299 30.2897 24.0962 32.5297C24.3999 32.3751 25.0072 32.0661 25.3108 31.9115C25.9181 31.6025 26.0689 31.15 26.9819 31.4368ZM20.4235 23.8787C19.9629 22.2345 18.5892 20.3036 17.5192 18.2181C18.4364 20.0056 19.3535 21.7932 20.4235 23.8787ZM16.2964 15.8347C15.9886 14.4884 14.4621 12.2595 13.5449 10.472C14.4621 12.2595 15.2264 13.7492 16.4492 16.1326C16.4492 16.1326 16.4492 16.1326 16.2964 15.8347ZM18.8805 15.6467C17.5068 13.7158 16.5876 11.1778 15.5155 8.34194C14.9062 7.90062 14.2989 8.20968 13.6916 8.51875C12.6299 9.43481 11.5661 9.60048 12.7848 10.4831C14.1584 12.4141 15.3813 14.7975 16.1476 17.0375C16.4513 16.883 17.0586 16.5739 17.3622 16.4194C17.8167 15.8124 18.1203 15.6578 18.8805 15.6467ZM12.3221 8.08857C12.0143 6.74233 10.4878 4.51346 9.57064 2.7259C10.4878 4.51346 11.2521 6.00309 12.4749 8.3865L12.3221 8.08857ZM14.9062 7.90062C13.5325 5.96967 12.6133 3.43172 11.5412 0.595853C10.9319 0.154533 10.3246 0.463599 9.71729 0.772666C8.65556 1.68872 7.4389 1.55647 8.81048 2.73704C10.1841 4.66799 11.407 7.0514 12.1733 9.29142C12.477 9.13688 13.0843 8.82782 13.2351 8.37536C13.8424 8.06629 14.146 7.91176 14.9062 7.90062ZM14.3216 16.4639C13.105 16.3317 12.1919 16.0449 10.9753 15.9126C12.1919 16.0449 12.9521 16.0338 14.3216 16.4639C12.4956 15.8904 11.1261 15.4602 9.45292 15.1845C10.8224 15.6147 12.0391 15.747 13.8651 16.3205C11.8862 15.449 10.2131 15.1734 8.6907 14.4453C10.0602 14.8755 11.4297 15.3056 13.4086 16.1771C11.7334 15.1511 9.90736 14.5775 8.08133 14.004C9.90736 14.5775 11.8862 15.449 14.3216 16.4639C14.7781 16.6073 14.7781 16.6073 14.3216 16.4639ZM13.7143 16.773C13.7143 16.773 13.4107 16.9275 13.2578 16.6296C10.9774 16.663 9.00054 16.5419 7.17659 16.7187C8.84975 16.9944 10.6737 16.8176 12.4977 16.6407C10.6737 16.8176 9.1534 16.8398 7.78595 17.16C9.30626 17.1378 11.1302 16.9609 12.9542 16.7841C11.4339 16.8064 10.0664 17.1266 8.69896 17.4468C10.5229 17.27 11.8904 16.9498 13.4107 16.9275C12.3469 17.0932 11.2831 17.2589 10.2193 17.4245C11.2831 17.2589 12.3469 17.0932 13.4107 16.9275C13.7143 16.773 13.7143 16.773 13.7143 16.773ZM14.6315 18.5606C14.0242 18.8696 13.5697 19.4766 12.6588 19.9402C13.2661 19.6311 13.7205 19.0242 14.6315 18.5606C13.7205 19.0242 12.6588 19.9402 11.7478 20.4038C12.6588 19.9402 13.4169 19.1787 14.3278 18.7151C13.1132 19.3332 11.8986 19.9514 10.8369 20.8674C11.595 20.1059 12.8096 19.4878 14.0242 18.8696C12.8096 19.4878 11.595 20.1059 10.3804 20.724C11.595 20.1059 12.9604 19.0353 14.4786 18.2626C14.7823 18.1081 14.9351 18.406 14.6315 18.5606ZM14.7843 18.8585C14.4807 19.013 14.4807 19.013 14.4807 19.013C13.2682 20.3815 12.3593 21.5955 11.754 22.655C12.3593 21.5955 13.2682 20.3815 14.0262 19.62C13.421 20.6795 12.6629 21.441 12.0577 22.5004C12.6629 21.441 13.5718 20.227 14.177 19.1675C13.5718 20.227 13.2702 21.1319 12.8158 21.7389C13.2702 21.1319 13.8754 20.0725 14.4807 19.013C14.1791 19.9179 13.7247 20.5249 13.5739 20.9774C14.0283 20.3704 14.0262 19.62 14.4807 19.013L14.7843 18.8585ZM15.5424 18.097C15.8461 17.9424 15.8461 17.9424 16.1497 17.7879C16.3026 18.0858 16.3026 18.0858 16.7591 18.2292C18.2856 20.4581 19.3556 22.5436 20.1219 24.7836C20.4256 24.6291 21.0329 24.32 21.3365 24.1655C21.791 23.5585 22.0946 23.4039 22.8548 23.3928C21.4811 21.4618 20.5619 18.9239 19.4898 16.088C18.8805 15.6467 18.2732 15.9558 17.6659 16.2648C16.9078 17.0264 16.1476 17.0375 15.9969 17.49C15.844 17.192 15.3875 17.0486 15.2346 16.7507C15.0818 16.4528 14.6253 16.3094 13.863 15.5702C11.8842 14.6987 8.68863 13.6949 7.01547 13.4193C7.47404 14.313 9.90942 15.3279 11.8883 16.1994C9.91149 16.0783 7.32738 16.2663 5.80914 17.0389C7.33151 17.767 12.9562 17.5345 14.6273 17.0598C14.6273 17.0598 14.931 16.9052 15.0838 17.2032C15.5403 17.3466 15.9969 17.49 16.1497 17.7879C15.8461 17.9424 15.5424 18.097 15.0859 17.9536C15.0859 17.9536 14.7823 18.1081 14.175 18.4172C12.5039 18.8919 10.5312 20.2716 9.46945 21.1876C10.3825 21.4744 12.2044 20.5472 13.5697 19.4766C12.6609 20.6906 11.6012 22.357 10.996 23.4165C12.3634 23.0963 14.7864 19.6089 14.9351 18.406C15.2388 18.2515 15.2388 18.2515 15.5424 18.097Z" fill="#55B807"/>
<path d="M28.1743 10.2391L28.1782 10.2252L28.178 10.2107L28.0821 4.15261L28.0819 4.14261L28.0798 4.13285C28.0313 3.91064 28.1382 3.69607 28.374 3.52213C28.61 3.3481 28.9617 3.22756 29.3541 3.20459C30.1288 3.15924 31.0324 3.49439 31.4726 4.49829C31.2842 5.3744 31.1772 6.2383 31.0707 7.09722L31.0705 7.09937C30.9625 7.97057 30.8552 8.83666 30.6646 9.71399L30.6554 9.75621L30.6798 9.79182C33.1412 13.3771 33.4114 17.285 32.1986 20.8179C30.9849 24.3533 28.2846 27.5151 24.8031 29.5944C21.3223 31.6734 17.0657 32.6672 12.7422 31.8738C8.42473 31.0815 4.03183 28.5054 0.272911 23.43C0.133783 22.8476 0.0778791 22.3617 0.107862 21.9746C0.138149 21.5835 0.255102 21.3025 0.452161 21.1197C0.648968 20.937 0.941107 20.838 1.35208 20.843C1.76321 20.848 2.28406 20.9574 2.92488 21.1815C13.4167 25.5384 25.0393 21.4704 28.1743 10.2391Z" fill="#FFEB00" stroke="#55B807" stroke-width="0.2"/>
</svg>
