<svg width="48" height="38" viewBox="0 0 48 38" fill="none" xmlns="http://www.w3.org/2000/svg">
<path fill-rule="evenodd" clip-rule="evenodd" d="M12.1024 8.98763C12.007 9.07187 11.9117 9.15603 11.8185 9.24233C11.6029 9.43749 11.3909 9.63575 11.1825 9.83643C9.38673 11.5657 7.78774 13.5437 6.6388 15.7566C5.48834 17.9723 4.80473 20.4212 4.86857 22.8281C4.89742 23.9138 5.08235 25.0666 5.71905 26.0344C5.82872 26.2012 5.95174 26.3607 6.08746 26.5105L8.36463 29.0667L8.38678 29.0916C8.64858 29.3854 8.96124 29.6409 9.32367 29.8383C9.86832 30.1349 10.5143 30.2899 11.1989 30.2324C11.7923 30.1825 12.3503 29.9796 12.8455 29.7117C13.3384 29.4451 13.7667 29.1174 14.153 28.787C14.9248 28.127 15.5508 27.46 16.2157 27.028C17.4032 26.2563 18.9418 26.0344 20.4924 25.9976C22.0522 25.9606 23.7258 26.0837 25.4829 25.6704C27.621 25.1675 29.6032 23.8826 31.0106 22.1526C32.4163 20.4246 33.2195 18.3012 33.3175 16.2136C33.4205 14.02 32.7454 11.8979 31.4229 10.2758C31.347 10.1826 31.2683 10.0918 31.1881 10.0023L28.8889 7.42128C27.5758 5.94226 25.7291 4.95535 23.68 4.65156C21.419 4.31637 19.0301 4.81379 16.8853 5.80006C15.1302 6.60705 13.5391 7.72571 12.1036 8.98791L12.1024 8.98763ZM13.1015 10.039C13.2029 9.9494 13.3064 9.86201 13.4094 9.77453C14.6485 8.72736 15.9849 7.8224 17.4115 7.16641C19.3084 6.29421 21.3912 5.87562 23.2886 6.1569C25.0997 6.4254 26.7522 7.34853 27.8593 8.70642C28.9665 10.0644 29.5422 11.8732 29.4559 13.7117C29.3738 15.4604 28.6898 17.2579 27.5278 18.6862C26.3675 20.1125 24.7063 21.1847 22.9668 21.5939C21.5246 21.9331 19.9648 21.8388 18.3093 21.878C16.6447 21.9175 14.7816 22.1269 13.1489 23.1879C12.2335 23.7828 11.5602 24.5212 10.8968 25.0886C10.5655 25.3718 10.2353 25.6182 9.90217 25.7984C9.57129 25.9774 9.23105 26.092 8.92065 26.1181C8.56527 26.1479 8.18973 26.0647 7.86883 25.8899C7.54531 25.7137 7.26245 25.4412 7.04641 25.1128C6.61192 24.4524 6.44163 23.5637 6.41667 22.6231C6.36088 20.5213 6.96316 18.329 8.003 16.3263C9.04427 14.3208 10.5172 12.4884 12.203 10.8651C12.4964 10.5826 12.7958 10.3067 13.1015 10.0391L13.1015 10.039ZM14.015 11.0754C13.7303 11.3229 13.4515 11.5814 13.1765 11.8464C11.5957 13.3687 10.2429 15.0624 9.30423 16.8702C8.36992 18.6697 7.84517 20.6174 7.89322 22.4282C7.9145 23.2306 8.07096 23.8673 8.3126 24.2345C8.42989 24.4129 8.57284 24.5386 8.68817 24.6014C8.7958 24.66 8.91341 24.675 8.95477 24.6715C8.99586 24.668 9.12851 24.6375 9.30237 24.5435C9.48293 24.4458 9.71956 24.2773 9.99852 24.0387C10.5587 23.5597 11.2768 22.7532 12.4311 22.0031C14.4883 20.6662 16.6608 20.4686 18.4343 20.4266C20.181 20.3852 21.6323 20.4522 22.7742 20.1836C24.1336 19.8638 25.489 18.9942 26.4137 17.8576C27.3432 16.7149 27.9135 15.2281 27.9805 13.8025C28.0509 12.3028 27.5697 10.7926 26.6678 9.6864C25.7663 8.58064 24.3881 7.81122 22.9156 7.59289C21.3648 7.36301 19.5739 7.70641 17.9135 8.46987C16.6568 9.04773 15.447 9.86075 14.3003 10.8301C14.2046 10.9107 14.1096 10.9926 14.015 11.0754L14.015 11.0754ZM20.7828 13.0188C21.3287 12.5367 21.9803 12.2182 22.5945 12.1335C23.2086 12.0487 23.7349 12.2046 24.0576 12.5668C24.3803 12.929 24.4729 13.4679 24.3152 14.065C24.1574 14.662 23.7621 15.2683 23.2163 15.7504C22.946 15.9891 22.6469 16.1902 22.3361 16.3421C22.0252 16.494 21.7087 16.5938 21.4046 16.6358C21.1005 16.6778 20.8148 16.6611 20.5637 16.5868C20.3127 16.5124 20.1012 16.3818 19.9414 16.2025C19.7816 16.0231 19.6767 15.7985 19.6325 15.5414C19.5883 15.2843 19.6057 14.9999 19.6839 14.7042C19.762 14.4086 19.8993 14.1076 20.0878 13.8184C20.2764 13.5292 20.5126 13.2575 20.7828 13.0188Z" fill="#D64F4D"/>
<path d="M43.0601 12.6642C40.6262 14.7945 40.3334 18.9016 40.3334 18.9016C17.3126 14.1777 12.6894 31.5069 12.6894 31.5069C12.6894 31.5069 27.8866 41.1243 41.5923 22.1096C41.5923 22.1096 44.6038 24.9315 47.8435 24.8538C47.8435 24.8538 45.0253 22.6968 43.7412 19.4246C42.4577 16.1527 43.0601 12.6642 43.0601 12.6642ZM18.4785 29.047C17.9389 29.257 17.3126 28.9455 17.0796 28.3516C16.8466 27.7578 17.095 27.1064 17.6346 26.8965C18.1742 26.6865 18.8003 26.9976 19.0333 27.5915C19.2663 28.1853 19.0181 28.8371 18.4785 29.047ZM23.6784 31.7047C23.6519 31.8368 23.5659 31.9338 23.4567 31.9763C23.3867 32.0035 23.306 32.0079 23.2248 31.9826C23.0197 31.9204 22.889 31.6939 22.9337 31.4777C23.7377 27.5874 20.8214 25.7963 20.6975 25.7219C20.5083 25.6093 20.4296 25.3598 20.5219 25.1647C20.6133 24.9695 20.8402 24.9015 21.0299 25.0131C21.0658 25.0347 24.6124 27.1862 23.6784 31.7047Z" fill="#7A7871"/>
</svg>
