<svg width="126" height="73" viewBox="0 0 126 73" fill="none" xmlns="http://www.w3.org/2000/svg">
<path d="M45.1731 50.0545C44.9929 49.7136 44.8127 49.4296 44.6926 49.0887C43.8517 47.1572 43.8517 45.6802 44.152 43.8055C44.3923 42.4421 44.3322 41.7604 43.9117 41.2491C43.4312 40.6811 42.7104 40.6242 41.6893 40.5106H41.5091C41.2087 40.4538 40.9084 40.4538 40.6681 40.4538C38.3255 40.3402 37.0041 40.397 36.4034 41.2491C35.8027 42.0445 36.2232 43.2374 37.0641 44.9417C37.4846 45.7938 37.6648 46.646 37.7849 47.2709C36.7638 47.3277 35.5625 47.7821 34.1209 48.3502C31.1776 49.4864 27.1531 51.077 22.2277 49.6568C16.4012 48.0094 11.5358 43.6351 8.89287 41.2491C7.63147 40.113 7.09087 39.6017 6.67041 39.4881C6.06974 39.3176 5.28887 39.7153 4.86841 39.9425L4.62814 40.0562C4.32781 40.2834 3.90734 40.6242 3.72714 41.0219C3.30667 42.3285 3.24661 44.7713 4.26774 47.4981C3.90734 47.3277 3.66707 47.2709 3.42681 47.214C2.82614 47.1572 2.16541 47.6117 1.62481 48.123L1.44461 48.2934C1.14427 48.5775 0.783875 49.0319 0.783875 49.4864C0.663742 51.5883 1.74494 54.8832 4.32781 57.9509H4.26774C3.66707 58.0645 3.12647 58.7462 2.76607 59.3711V59.5983C2.58587 59.996 2.40567 60.5073 2.46574 60.9617C3.06641 63.2909 5.52914 66.6426 9.67374 68.9718C12.1965 70.392 16.0408 71.7554 21.3267 71.7554C23.6693 71.7554 26.3122 71.4713 29.1954 70.7896C36.043 69.199 42.4101 64.5975 44.9929 59.2007C46.6147 56.0194 46.6748 52.8381 45.1731 50.0545ZM4.80834 41.3059C4.80834 41.3059 4.86841 41.2491 4.86841 41.1923C4.98854 41.4196 5.16874 41.7036 5.34894 41.9877C6.91067 44.6577 10.3345 50.6794 18.3834 53.6902C13.3979 52.4972 8.95294 50.0545 6.31001 48.5775C6.12981 48.4638 5.94961 48.3502 5.76941 48.2934C4.50801 45.5098 4.32781 42.783 4.80834 41.3059ZM1.92514 49.6C1.92514 49.6 1.92514 49.4864 2.04527 49.3728C2.22547 49.5432 2.52581 49.8841 2.82614 50.1681C5.34894 52.8381 11.2955 59.1439 22.1676 59.7688C22.528 59.7688 22.8283 59.7688 23.1887 59.7688C24.2699 59.7688 25.4112 59.6551 26.4323 59.4279C26.3122 59.4847 26.132 59.4847 26.0119 59.5415C19.2243 61.0754 11.716 59.3711 7.69154 58.4622C7.03081 58.2917 6.49021 58.1781 6.06974 58.1213C3.00634 55.1104 1.80501 51.5883 1.92514 49.6ZM44.0319 58.8598C41.5691 63.9158 35.5625 68.3469 29.0152 69.8239C12.3167 73.6301 4.50801 64.4839 3.54694 60.7345C3.54694 60.6777 3.54694 60.6209 3.60701 60.4505C3.90734 60.5641 4.26774 60.7913 4.62814 61.0185C8.05194 63.0068 16.0408 67.6083 27.1531 65.052C34.4813 63.4045 38.2054 58.0645 40.3678 54.1447C40.4879 53.9175 40.4279 53.5766 40.1275 53.463C39.8873 53.3494 39.5269 53.4062 39.4067 53.6902C37.3645 57.3828 33.7605 62.4956 26.8528 64.0862C16.1609 66.529 8.47241 62.0411 5.16874 60.1664C4.68821 59.8824 4.32781 59.6551 4.02747 59.5415C4.26774 59.2007 4.50801 58.9734 4.62814 58.9734C4.92847 58.9166 6.18987 59.2007 7.39121 59.4847C10.2744 60.1664 14.9596 61.189 19.9451 61.189C21.9874 61.189 24.1498 61.0185 26.1921 60.5073C31.4779 59.3143 34.6014 56.3034 37.1242 53.2358C37.3044 53.0085 37.2443 52.6677 37.0041 52.4972C36.7638 52.3268 36.4034 52.3836 36.2232 52.6109C35.9829 52.8949 35.6826 53.2358 35.4423 53.5198C31.1776 57.2692 26.7927 58.9734 22.1075 58.6894C11.716 58.1213 5.94961 52.0428 3.48687 49.4296C3.12647 49.0319 2.88621 48.8047 2.64594 48.5775C2.94627 48.3502 3.18654 48.2366 3.30667 48.2366C3.60701 48.2934 4.62814 48.8615 5.64927 49.4296C9.13314 51.3611 15.6203 54.94 22.4679 55.3377C22.8283 55.3377 23.1287 55.3377 23.4891 55.3377C25.8917 55.3377 27.934 54.8832 29.736 54.1447H29.7961C29.8561 54.1447 29.8561 54.0879 29.9162 54.0879C32.1987 53.179 34.0007 51.9292 35.5625 50.9066C36.1031 50.5658 36.5836 50.2249 37.0041 49.9409C37.2443 49.7704 37.3044 49.4864 37.1843 49.2592C37.0041 49.0319 36.7037 48.9751 36.4635 49.0887C35.9829 49.3728 35.5024 49.7136 34.9618 50.0545C33.4001 51.077 31.5981 52.3268 29.3155 53.179C26.3723 54.0311 23.4891 54.0879 20.726 53.2926C11.5959 50.7362 7.87174 44.2032 6.24994 41.4196C6.00968 41.0219 5.88954 40.7379 5.70934 40.5106C6.00967 40.397 6.18987 40.3402 6.31001 40.3402C6.55027 40.4538 7.33114 41.1355 8.11201 41.874C10.7549 44.26 15.7405 48.7479 21.8072 50.4521C23.3089 50.8498 24.7505 51.0202 26.0719 51.0202C29.4357 51.0202 32.1987 49.9409 34.4212 49.0887C35.9829 48.4638 37.3044 47.9526 38.2054 48.123H38.2655H38.3255C38.3255 48.123 38.3255 48.123 38.3856 48.123C38.4457 48.123 38.4457 48.123 38.5057 48.0662C38.5057 48.0662 38.5658 48.0662 38.5658 48.0094C38.6259 48.0094 38.6259 47.9526 38.6859 47.9526L38.746 47.8958C38.746 47.8958 38.8061 47.8389 38.8061 47.7821C38.8061 47.7253 38.8061 47.7253 38.8661 47.6685C38.8661 47.6685 38.8661 47.6685 38.8661 47.6117V47.5549V47.4981C38.8061 46.8164 38.6259 45.453 38.0252 44.2032C37.7249 43.5783 36.944 41.9877 37.3044 41.5332C37.6047 41.0787 39.2265 41.1355 40.6681 41.1923C40.9084 41.1923 41.1487 41.1923 41.3889 41.2491H41.5691C42.35 41.3059 42.8906 41.4196 43.0708 41.59C43.251 41.8172 43.251 42.3853 43.1309 43.3511C42.7705 45.3394 42.7705 47.0436 43.7315 49.2023C43.8517 49.5432 44.0319 49.8841 44.2121 50.2249C45.5335 53.0085 45.4735 55.849 44.0319 58.8598Z" fill="#333B41" stroke="#333B41" stroke-width="0.7"/>
<path d="M42.4714 57.8937C42.2312 57.7801 41.8708 57.8937 41.7506 58.1209C39.4681 62.7792 33.8819 66.8695 27.8152 68.2329C27.5148 68.2897 27.3346 68.5737 27.3947 68.8578C27.4548 69.085 27.695 69.2554 27.9353 69.2554C27.9954 69.2554 27.9954 69.2554 28.0554 69.2554C34.4826 67.8352 40.3691 63.5177 42.7718 58.5754C42.8919 58.3482 42.7718 58.0641 42.4714 57.8937Z" fill="#333B41" stroke="#333B41" stroke-width="0.7"/>
<path d="M68.4004 1.00768C65.2033 0.905391 62.0568 1.8276 59.4168 3.64074C56.7768 5.45388 54.7804 8.06379 53.7167 11.0923C53.6668 11.2345 53.5798 11.3607 53.4647 11.4576C53.3497 11.5545 53.2108 11.6186 53.0626 11.6433C51.4417 11.9186 49.972 12.7659 48.918 14.0324C47.864 15.299 47.295 16.9018 47.3134 18.552C47.3318 20.2023 47.9365 21.7917 49.0185 23.0342C50.1005 24.2767 51.5888 25.0909 53.2154 25.3297C53.3775 25.3535 53.5292 25.4244 53.6516 25.5337C53.774 25.643 53.8619 25.7858 53.9043 25.9447C54.7001 28.9208 56.4152 31.5671 58.8031 33.5033C61.1909 35.4395 64.1287 36.5659 67.1942 36.7209C66.5251 39.1745 66.1195 41.693 65.9845 44.2333L60.924 43.4302C59.8571 43.2608 58.767 43.5238 57.8932 44.1613C57.0195 44.7988 56.4338 45.7585 56.265 46.8296C56.0962 47.9006 56.3581 48.995 56.993 49.8722C57.628 50.7494 58.584 51.3373 59.6508 51.5068L66.5244 52.5969C66.7194 53.6657 66.9631 54.7249 67.2545 55.7714C65.6904 57.4792 64.8224 59.7146 64.8226 62.0346V63.4815C64.8224 63.7046 64.7341 63.9186 64.5769 64.0763C64.4198 64.2341 64.2067 64.3227 63.9845 64.3229H63.4828C62.8881 64.3225 62.299 64.44 61.7494 64.6682C61.1998 64.8965 60.7004 65.2312 60.2796 65.6533C59.8589 66.0754 59.5252 66.5766 59.2974 67.1282C59.0697 67.6798 58.9524 68.2711 58.9524 68.8682V70.0537C58.9524 70.3888 59.0183 70.7206 59.1461 71.0302C59.274 71.3397 59.4613 71.6208 59.6975 71.8576C59.9337 72.0944 60.214 72.2822 60.5225 72.4102C60.831 72.5382 61.1615 72.6038 61.4953 72.6035H93.6979C98.0269 72.604 102.307 71.6861 106.258 69.9097C110.209 68.1333 113.741 65.5386 116.623 62.2957C121.185 57.704 124.233 51.8179 125.357 45.4318C126.047 39.885 124.548 34.2873 121.179 29.8364C118.549 26.4476 114.975 23.9195 110.912 22.5725C108.105 21.7241 105.102 21.7963 102.339 22.7788C99.5763 23.7613 97.1976 25.6028 95.5487 28.0356C95.2353 28.4967 95.0156 29.0152 94.902 29.5616C94.7884 30.108 94.7832 30.6713 94.8867 31.2197C94.9902 31.7681 95.2004 32.2906 95.5052 32.7574C95.81 33.2241 96.2035 33.6261 96.6632 33.94C97.1228 34.254 97.6396 34.4738 98.184 34.5871C98.7283 34.7004 99.2896 34.7049 99.8357 34.6003C100.382 34.4957 100.902 34.2839 101.367 33.9773C101.831 33.6707 102.231 33.2752 102.543 32.8134C103.17 31.8884 104.071 31.1847 105.118 30.8015C106.165 30.4183 107.305 30.3751 108.378 30.678C110.785 31.5014 112.903 33.0083 114.474 35.0159C116.442 37.637 117.342 40.9127 116.988 44.1761C116.118 48.8459 113.841 53.1347 110.464 56.463C107.233 60.1776 102.868 62.715 98.0505 63.6793C98.0109 63.687 97.9699 63.6847 97.9314 63.6725C97.8929 63.6603 97.858 63.6386 97.83 63.6095C97.8019 63.5803 97.7815 63.5446 97.7707 63.5056C97.7599 63.4665 97.759 63.4253 97.768 63.3858C99.2535 57.132 98.8309 50.5742 96.5552 44.5647C95.3896 40.7952 93.4443 37.3154 90.8466 34.3527C88.249 31.39 85.0575 29.0115 81.4809 27.3725C81.6587 26.9048 81.8124 26.4281 81.9413 25.9445C81.9837 25.7856 82.0716 25.6428 82.1941 25.5335C82.3165 25.4242 82.4682 25.3533 82.6303 25.3295C84.2569 25.0903 85.745 24.276 86.8266 23.0332C87.9083 21.7904 88.5126 20.2007 88.5306 18.5504C88.5486 16.9001 87.9793 15.2977 86.925 14.0314C85.8707 12.7651 84.4008 11.9181 82.7799 11.6431C82.6317 11.6184 82.4928 11.5543 82.3778 11.4574C82.2627 11.3605 82.1757 11.2343 82.1258 11.0921C81.1166 8.21857 79.2662 5.71834 76.8171 3.9188C74.368 2.11927 71.4338 1.10461 68.4004 1.00768ZM67.4574 2.11355C70.421 2.01807 73.338 2.87269 75.7852 4.55356C78.2324 6.23443 80.0827 8.65423 81.0679 11.4619C81.1835 11.7905 81.3846 12.082 81.6503 12.3062C81.9161 12.5304 82.2368 12.6791 82.5791 12.7368C83.9399 12.9681 85.1737 13.6794 86.0587 14.7425C86.9437 15.8057 87.4217 17.151 87.4068 18.5364C87.3919 19.9218 86.8851 21.2565 85.9775 22.3002C85.0698 23.344 83.821 24.0284 82.4556 24.2302C82.0799 24.2852 81.7285 24.4494 81.4447 24.7026C81.1609 24.9558 80.9572 25.2868 80.8587 25.6549C80.4389 27.2271 79.7386 28.7098 78.7918 30.0311C78.92 27.4422 78.0269 24.9069 76.3059 22.9745C76.2864 22.948 76.2724 22.9177 76.2648 22.8856C76.2572 22.8535 76.2562 22.8203 76.2618 22.7878C76.2674 22.7554 76.2796 22.7243 76.2975 22.6967C76.3154 22.669 76.3387 22.6454 76.3661 22.6271C77.7327 21.4524 78.6095 19.8048 78.8225 18.0114C79.0356 16.2179 78.5693 14.4095 77.5162 12.9451C76.4632 11.4806 74.9002 10.4673 73.1375 10.1058C71.3748 9.74425 69.5411 10.0611 68.0003 10.9935C67.777 11.1284 67.5212 11.1997 67.2605 11.1997C66.9999 11.1997 66.7441 11.1284 66.5208 10.9935H66.5045C64.9637 10.0648 63.1318 9.75074 61.3713 10.1136C59.6109 10.4765 58.0504 11.4899 56.9987 12.9529C55.9471 14.4159 55.481 16.222 55.6927 18.0136C55.9044 19.8052 56.7786 21.4517 58.142 22.6271C58.165 22.6497 58.1833 22.6767 58.1957 22.7065C58.2082 22.7364 58.2146 22.7685 58.2146 22.8008C58.2146 22.8331 58.2082 22.865 58.1957 22.8949C58.1833 22.9247 58.165 22.9519 58.142 22.9745C56.9052 24.3661 56.0872 26.0814 55.7831 27.9212C55.4387 27.1923 55.1604 26.4338 54.9513 25.6549C54.853 25.2873 54.6498 24.9566 54.3666 24.7034C54.0834 24.4503 53.7327 24.2858 53.3576 24.2302C51.9922 24.0284 50.7434 23.344 49.8358 22.3002C48.9281 21.2565 48.4213 19.9218 48.4064 18.5364C48.3915 17.151 48.8695 15.8057 49.7545 14.7425C50.6395 13.6794 51.8734 12.9681 53.2341 12.7368C53.5758 12.6785 53.8959 12.5298 54.161 12.3056C54.4262 12.0814 54.6268 11.7901 54.7421 11.4619C55.6765 8.79894 57.3905 6.48146 59.6594 4.8133C61.9284 3.14515 64.6465 2.2041 67.4574 2.11355ZM62.5903 11.0698C62.7458 11.0638 62.9015 11.0638 63.057 11.0698C64.0722 11.1137 65.0602 11.413 65.9302 11.9401C66.3256 12.1789 66.7784 12.305 67.2398 12.305C67.7013 12.305 68.154 12.1789 68.5494 11.9401C69.8529 11.1551 71.4025 10.89 72.8914 11.1975C74.3803 11.5049 75.6999 12.3623 76.589 13.6C77.4782 14.8377 77.872 16.3655 77.6925 17.8809C77.513 19.3962 76.7733 20.7887 75.6198 21.7826C75.4843 21.9003 75.3735 22.0438 75.2939 22.205C75.2143 22.3661 75.1676 22.5418 75.1564 22.7214C75.1452 22.9009 75.1698 23.0808 75.2287 23.2507C75.2876 23.4206 75.3797 23.577 75.4995 23.7107C76.4431 24.7702 77.1152 26.0445 77.4576 27.4235C77.8001 28.8025 77.8025 30.2446 77.4648 31.6247C76.0663 33.0463 74.3701 34.1377 72.4994 34.8195C70.6287 35.5013 68.6302 35.7566 66.649 35.5668C64.6678 35.377 62.7535 34.7468 61.045 33.7221C59.3365 32.6974 57.8765 31.3037 56.7711 29.6423C56.7452 27.4565 57.5359 25.3403 58.9871 23.7107C59.1064 23.5764 59.1978 23.4195 59.2559 23.2493C59.314 23.079 59.3377 22.8987 59.3256 22.7191C59.3135 22.5395 59.2658 22.3643 59.1854 22.2035C59.1049 22.0427 58.9933 21.8996 58.8571 21.7826C57.9276 20.9856 57.2597 19.9251 56.941 18.7404C56.6222 17.5557 56.6674 16.3019 57.0707 15.1434C57.474 13.985 58.2165 12.9758 59.201 12.2484C60.1854 11.5209 61.3659 11.109 62.5875 11.0668L62.5903 11.0698ZM106.835 23.0955C108.104 23.0845 109.368 23.265 110.584 23.6311C114.43 24.9112 117.812 27.3068 120.303 30.5156C123.489 34.7258 124.912 40.0187 124.268 45.2665C123.177 51.4294 120.228 57.1077 115.82 61.5344C113.041 64.6672 109.634 67.1742 105.822 68.8909C102.01 70.6075 97.8788 71.4949 93.7006 71.4947H61.4983C61.3095 71.4951 61.1226 71.4582 60.9481 71.386C60.7736 71.3138 60.615 71.2076 60.4814 71.0738C60.3478 70.94 60.2418 70.7812 60.1695 70.6062C60.0972 70.4312 60.06 70.2434 60.06 70.054V68.8684C60.06 68.4169 60.1486 67.9699 60.3208 67.5528C60.493 67.1357 60.7454 66.757 61.0635 66.4379C61.3817 66.1188 61.7593 65.8657 62.1749 65.6932C62.5905 65.5207 63.0359 65.4321 63.4856 65.4325H63.9873C64.2426 65.4327 64.4956 65.3826 64.7316 65.2847C64.9677 65.1868 65.1822 65.0433 65.3629 64.8621C65.5437 64.681 65.6871 64.4658 65.785 64.229C65.8829 63.9922 65.9333 63.7383 65.9335 63.4819V62.035C65.9829 59.9089 66.8588 57.8866 68.3741 56.4004C69.8893 54.9143 71.9236 54.0823 74.042 54.0823C76.1603 54.0823 78.1946 54.9143 79.7099 56.4004C81.2252 57.8866 82.1011 59.9089 82.1505 62.035V64.5114C82.1548 64.6556 82.2148 64.7925 82.318 64.893C82.4211 64.9935 82.5592 65.0496 82.7029 65.0496C82.8467 65.0496 82.9847 64.9935 83.0879 64.893C83.191 64.7925 83.2511 64.6556 83.2554 64.5114V62.035C83.2558 60.4145 82.8323 58.8221 82.0272 57.4176C81.2221 56.013 80.0637 54.8455 78.6678 54.0316C79.5179 53.8303 80.319 53.4595 81.0234 52.9412C81.7279 52.4229 82.3214 51.7677 82.7686 51.0145C83.2158 50.2614 83.5077 49.4256 83.6267 48.557C83.7458 47.6884 83.6897 46.8046 83.4618 45.9581C82.8714 43.7654 82.0542 41.6405 81.0235 39.6184C80.9565 39.4874 80.8404 39.3885 80.7008 39.3434C80.5611 39.2984 80.4093 39.3108 80.2788 39.378C80.1483 39.4453 80.0498 39.5618 80.0048 39.702C79.9599 39.8422 79.9723 39.9947 80.0393 40.1258C81.0339 42.0788 81.8224 44.1307 82.3919 46.2483C82.6273 47.1227 82.6411 48.0424 82.4322 48.9236C82.2232 49.8047 81.798 50.6195 81.1953 51.2936C80.5927 51.9677 79.8316 52.4797 78.9815 52.7831C78.1314 53.0866 77.2192 53.1718 76.3279 53.0309L59.8282 50.411C59.0533 50.2851 58.3598 49.8558 57.8994 49.2175C57.4391 48.5792 57.2495 47.7839 57.3721 47.0055C57.4947 46.2272 57.9196 45.5293 58.5537 45.0648C59.1878 44.6003 59.9795 44.407 60.7552 44.5272L73.4579 46.5449C73.602 46.5663 73.7488 46.5297 73.8662 46.443C73.9837 46.3563 74.0622 46.2266 74.0848 46.082C74.1075 45.9375 74.0723 45.7898 73.987 45.6712C73.9017 45.5525 73.7731 45.4725 73.6293 45.4485L67.086 44.4095C67.2147 41.8119 67.6354 39.2371 68.3401 36.7343C71.0189 36.6572 73.6242 35.8371 75.8674 34.3648C78.1105 32.8926 79.9039 30.8257 81.0489 28.3932C84.4835 29.971 87.5475 32.2594 90.0401 35.1085C92.5328 37.9575 94.3979 41.3029 95.5134 44.9257C97.7206 50.7362 98.1321 57.0795 96.6945 63.1283C96.6419 63.3491 96.6455 63.5797 96.705 63.7986C96.7644 64.0176 96.8778 64.2181 97.0346 64.3815C97.1915 64.545 97.3868 64.6663 97.6025 64.7341C97.8183 64.8019 98.0476 64.8142 98.2693 64.7697C103.313 63.7603 107.884 61.1086 111.273 57.2256C114.804 53.7315 117.181 49.2332 118.083 44.3391C118.48 40.7784 117.503 37.2006 115.353 34.3408C113.643 32.1508 111.334 30.5091 108.708 29.617C107.409 29.2446 106.027 29.2929 104.757 29.7547C103.487 30.2164 102.395 31.0684 101.635 32.1893C101.404 32.5301 101.108 32.8217 100.765 33.0478C100.422 33.2739 100.037 33.43 99.6339 33.507C99.2306 33.584 98.8161 33.5803 98.4142 33.4965C98.0122 33.4126 97.6306 33.2501 97.2912 33.0182C96.9518 32.7863 96.6612 32.4895 96.4361 32.1449C96.2109 31.8002 96.0556 31.4145 95.979 31.0096C95.9023 30.6046 95.9059 30.1885 95.9895 29.7849C96.073 29.3814 96.2349 28.9983 96.466 28.6576C97.6182 26.9586 99.1633 25.5652 100.969 24.5966C102.775 23.628 104.788 23.1127 106.835 23.0955ZM67.6892 52.7819L70.9879 53.3047C69.9625 53.6671 69.0091 54.2088 68.1717 54.9047C67.9897 54.2024 67.8298 53.4944 67.6923 52.7819H67.6892Z" fill="#333B41" stroke="#333B41" stroke-width="0.7"/>
<path d="M71.8428 14.6308C71.2242 14.6419 70.635 14.8981 70.2038 15.3435C69.7726 15.789 69.5343 16.3875 69.5409 17.0086C69.5409 17.6329 69.7879 18.2315 70.2276 18.6729C70.6673 19.1143 71.2637 19.3624 71.8856 19.3624C72.5074 19.3624 73.1038 19.1143 73.5435 18.6729C73.9832 18.2315 74.2302 17.6329 74.2302 17.0086C74.2336 16.6938 74.1739 16.3815 74.0549 16.0903C73.9359 15.799 73.7598 15.5346 73.5372 15.3129C73.3146 15.0911 73.0499 14.9165 72.7589 14.7993C72.4678 14.6822 72.1563 14.6249 71.8428 14.6308ZM71.8623 15.7527C72.0281 15.7494 72.1928 15.7794 72.3468 15.8412C72.5008 15.903 72.6409 15.9951 72.7587 16.1123C72.8765 16.2294 72.9698 16.3691 73.0328 16.5231C73.0959 16.6771 73.1275 16.8422 73.1258 17.0086C73.1259 17.1721 73.0939 17.334 73.0316 17.4851C72.9693 17.6362 72.878 17.7735 72.7629 17.8891C72.6477 18.0048 72.5111 18.0964 72.3606 18.159C72.2101 18.2215 72.0489 18.2538 71.886 18.2538C71.7232 18.2538 71.5619 18.2215 71.4114 18.159C71.261 18.0964 71.1243 18.0048 71.0092 17.8891C70.894 17.7735 70.8027 17.6362 70.7404 17.4851C70.6782 17.334 70.6462 17.1721 70.6462 17.0086C70.6429 16.6806 70.7689 16.3644 70.9966 16.1292C71.2244 15.8939 71.5356 15.7587 71.8623 15.7527Z" fill="#333B41" stroke="#333B41" stroke-width="0.7"/>
<path d="M62.5598 14.6307C61.9412 14.6419 61.3521 14.898 60.9209 15.3435C60.4897 15.7889 60.2514 16.3875 60.258 17.0086C60.2491 17.3231 60.3032 17.636 60.4169 17.9292C60.5307 18.2224 60.7018 18.4898 60.9203 18.7154C61.1387 18.9411 61.4 19.1203 61.6887 19.2428C61.9774 19.3652 62.2876 19.4284 62.601 19.4284C62.9145 19.4284 63.2247 19.3652 63.5134 19.2428C63.8021 19.1203 64.0634 18.9411 64.2818 18.7154C64.5003 18.4898 64.6714 18.2224 64.7852 17.9292C64.8989 17.636 64.953 17.3231 64.9441 17.0086C64.9474 16.694 64.8879 16.3821 64.7691 16.091C64.6502 15.8 64.4745 15.5357 64.2522 15.314C64.0299 15.0924 63.7656 14.9177 63.4749 14.8003C63.1842 14.6829 62.873 14.6253 62.5598 14.6307ZM62.5792 15.7527C62.7448 15.7497 62.9092 15.78 63.0628 15.842C63.2165 15.9039 63.3562 15.9962 63.4737 16.1132C63.5912 16.2303 63.6841 16.3699 63.747 16.5237C63.8098 16.6774 63.8413 16.8424 63.8397 17.0086C63.8439 17.1745 63.815 17.3396 63.7547 17.4941C63.6944 17.6486 63.6038 17.7896 63.4884 17.9084C63.373 18.0273 63.2351 18.1216 63.0828 18.1861C62.9304 18.2506 62.7668 18.2838 62.6014 18.2838C62.4361 18.2838 62.2724 18.2506 62.1201 18.1861C61.9678 18.1216 61.8298 18.0273 61.7144 17.9084C61.599 17.7896 61.5085 17.6486 61.4482 17.4941C61.3878 17.3396 61.359 17.1745 61.3632 17.0086C61.3599 16.6805 61.4858 16.3643 61.7136 16.1291C61.9414 15.8939 62.2525 15.7586 62.5792 15.7527Z" fill="#333B41" stroke="#333B41" stroke-width="0.7"/>
<path d="M63.2729 28.8266C63.7217 29.4645 64.3165 29.9849 65.0073 30.3441C65.6981 30.7033 66.4647 30.891 67.2427 30.891C68.0206 30.891 68.7872 30.7033 69.478 30.3441C70.1688 29.9849 70.7636 29.4645 71.2124 28.8266C71.2945 28.7063 71.3262 28.5583 71.3005 28.4147C71.2748 28.2712 71.1939 28.1436 71.0752 28.0595C70.9565 27.9754 70.8096 27.9417 70.6663 27.9654C70.523 27.9892 70.3947 28.0685 70.3093 28.1865C69.9626 28.6792 69.5031 29.0814 68.9694 29.3588C68.4358 29.6363 67.8436 29.781 67.2427 29.781C66.6417 29.781 66.0496 29.6363 65.5159 29.3588C64.9823 29.0814 64.5228 28.6792 64.1761 28.1865C64.0906 28.0685 63.9624 27.9892 63.819 27.9654C63.6757 27.9417 63.5288 27.9754 63.4101 28.0595C63.2915 28.1436 63.2105 28.2712 63.1849 28.4147C63.1592 28.5583 63.1908 28.7063 63.2729 28.8266Z" fill="#333B41" stroke="#333B41" stroke-width="0.7"/>
</svg>
