<svg width="71" height="37" viewBox="0 0 71 37" fill="none" xmlns="http://www.w3.org/2000/svg">
<path d="M54.5889 28.5172L54.5889 28.5173L54.5849 28.5199C51.5922 30.46 48.8213 32.0974 46.3482 33.3872C44.9641 34.1103 43.4417 34.8432 42.019 35.396C40.6041 35.9457 39.2594 36.3288 38.2409 36.3288C37.5766 36.3288 36.9877 36.1647 36.6402 35.7026L36.6401 35.7025C36.2886 35.2344 36.2989 34.6137 36.4913 33.9648C36.6855 33.31 37.0811 32.5679 37.5911 31.7949C38.6129 30.2461 40.1319 28.5167 41.563 27.0192C42.6307 25.9012 43.854 24.7009 45.2109 23.4388C40.8728 23.8237 36.0154 24.0263 31.0565 24.0263C23.7631 24.0263 16.2356 23.5724 10.5264 22.696C7.67394 22.2581 5.26225 21.7129 3.55796 21.0604C2.707 20.7346 2.01685 20.3763 1.53512 19.9804C1.05422 19.5851 0.75 19.125 0.75 18.5992C0.75 18.0734 1.05422 17.6133 1.53511 17.218C2.01684 16.822 2.70699 16.4637 3.55795 16.1379C5.26224 15.4853 7.67393 14.9399 10.5264 14.5019C16.2356 13.6252 23.7631 13.1711 31.0565 13.1711C36.2743 13.1711 41.3363 13.3922 45.8255 13.8131C43.9225 12.3721 42.2346 11.0082 40.792 9.74591L40.7919 9.74582C39.2339 8.38108 37.5677 6.79309 36.4127 5.34112C35.8362 4.61638 35.3765 3.91248 35.1251 3.27762C34.8759 2.64849 34.8107 2.03125 35.1195 1.53416L35.1195 1.53412C35.4285 1.0369 36.0108 0.821461 36.6855 0.765629C37.3662 0.709292 38.2011 0.809138 39.1064 1.00447C40.9201 1.3958 43.082 2.18545 44.9954 2.97789C47.5645 4.04095 50.4692 5.42656 53.6334 7.09707L53.6356 7.09823L56.0486 8.40248L56.0486 8.40238L56.0551 8.40614L59.5243 10.4177L59.5243 10.4177L59.5272 10.4194C62.8852 12.4264 66.341 14.5333 69.7988 16.6811L69.7988 16.6812L70.132 16.8882L70.4421 17.081L70.1502 17.3004L69.8374 17.5355C69.8374 17.5355 69.8374 17.5355 69.8373 17.5356C66.8302 19.8046 63.5762 22.209 60.1669 24.6848L60.1659 24.6856L58.7145 25.7281L58.7146 25.7282L58.7087 25.7322L54.5889 28.5172ZM45.8687 32.4668L45.8688 32.4668C48.3087 31.1934 51.0508 29.573 54.0178 27.65C54.0181 27.6498 54.0184 27.6497 54.0186 27.6495L56.2952 26.1447L59.5578 23.8441C59.5583 23.8437 59.5588 23.8434 59.5593 23.843C62.7347 21.5368 65.7755 19.2926 68.6066 17.1626C65.3696 15.1574 62.1393 13.1904 58.9967 11.3112C58.9966 11.3111 58.9965 11.311 58.9963 11.3109L56.7771 9.9979L53.1456 8.01323C53.1451 8.01295 53.1446 8.01267 53.144 8.01238C50.0083 6.35699 47.1333 4.98622 44.5983 3.93808L44.5982 3.93802C40.9158 2.41274 38.7744 1.89508 37.5378 1.796C36.2981 1.69666 36.0391 2.02033 36.0001 2.08216C35.9629 2.14279 35.7884 2.5173 36.4277 3.58436C37.0654 4.64888 38.4789 6.33922 41.4765 8.96401L41.4766 8.96408C43.2639 10.5304 45.4419 12.259 47.9486 14.1025L48.7567 14.6962L49.5088 15.2488L48.5812 15.1462L47.5839 15.0359C42.6939 14.4958 36.9786 14.2092 31.0565 14.2092C22.2376 14.2092 14.8727 14.8085 9.71777 15.6854C7.13848 16.1242 5.12299 16.6308 3.75795 17.1619C3.07407 17.428 2.56732 17.6951 2.23605 17.9536C1.89822 18.2173 1.78809 18.4354 1.78809 18.5992C1.78809 18.763 1.89822 18.9811 2.23605 19.2448C2.56731 19.5033 3.07406 19.7703 3.75794 20.0363C5.12298 20.5674 7.13847 21.0738 9.71775 21.5125C14.8727 22.3891 22.2376 22.9882 31.0565 22.9882C36.5797 22.9882 41.972 22.7362 46.6485 22.259L47.463 22.176L48.2189 22.099L47.6564 22.6098L47.05 23.1605L47.0498 23.1607C45.2477 24.7939 43.6547 26.3336 42.3133 27.7367C39.5606 30.6168 38.3029 32.426 37.7623 33.5431C37.2187 34.6667 37.4291 35.0231 37.4707 35.0784L37.4708 35.0785C37.5119 35.1333 37.7951 35.435 39.0251 35.2255C40.2481 35.0171 42.3358 34.3119 45.8687 32.4668Z" fill="#333B41" stroke="#333B41" stroke-width="0.5"/>
</svg>
