<svg width="87" height="96" viewBox="0 0 87 96" fill="none" xmlns="http://www.w3.org/2000/svg">
<path d="M39.7487 5.26397C39.3993 4.93634 39.0498 4.69607 38.7222 4.52134C38.3945 4.36844 38.0232 4.28107 37.6082 4.28107C37.1277 4.28107 36.7782 4.39028 36.5379 4.58686C36.2977 4.78344 36.1666 5.11108 36.1666 5.54792C36.1666 5.85371 36.2977 6.13766 36.5598 6.33424C36.8219 6.55266 37.1277 6.74924 37.5208 6.94582C37.914 7.1424 38.329 7.33898 38.7658 7.5574C39.2027 7.77582 39.6177 8.01609 40.0108 8.32188C40.404 8.62767 40.7098 8.97715 40.9719 9.41399C41.234 9.85083 41.3651 10.375 41.3651 10.9866C41.3651 11.9258 41.103 12.734 40.6006 13.4111C40.0982 14.0882 39.3119 14.5251 38.3072 14.7653V16.8185H36.4069V14.8527C35.839 14.7872 35.2274 14.6343 34.594 14.3722C33.9606 14.1101 33.4145 13.7824 32.9558 13.3674L34.2227 11.4235C34.725 11.7948 35.2056 12.0787 35.6424 12.2753C36.1011 12.4719 36.5598 12.5593 37.0185 12.5593C37.5645 12.5593 37.9795 12.4501 38.2198 12.2316C38.4819 12.0132 38.6129 11.6637 38.6129 11.2051C38.6129 10.8556 38.4819 10.5716 38.2198 10.3314C37.9577 10.0911 37.6519 9.87268 37.2587 9.65425C36.8656 9.43583 36.4506 9.21741 36.0137 8.99899C35.5769 8.78057 35.1619 8.51846 34.7687 8.21267C34.3756 7.90688 34.0698 7.5574 33.8077 7.1424C33.5455 6.7274 33.4145 6.24687 33.4145 5.65713C33.4145 4.69607 33.6766 3.88791 34.2008 3.25449C34.725 2.62106 35.4677 2.20606 36.385 2.03132V0H38.2853V1.98764C38.9187 2.07501 39.4648 2.27159 39.9453 2.55554C40.4258 2.83949 40.8408 3.18896 41.234 3.60396L39.7487 5.26397Z" fill="#333B41"/>
<path fill-rule="evenodd" clip-rule="evenodd" d="M86.7749 76.0006L83.1812 73.7891L75.1644 88.164L79.0346 90.0991L86.7749 76.0006Z" fill="#333B41"/>
<path fill-rule="evenodd" clip-rule="evenodd" d="M81.2457 73.2355C71.8467 62.4543 63.5535 65.2187 52.4959 72.4062C42.8205 78.7643 35.633 74.3413 28.4455 77.3821C26.7869 78.2114 24.2989 80.1465 26.5104 82.0816C27.6162 82.9109 32.0393 83.7403 33.4215 83.4638C40.8854 81.8052 43.0969 85.1225 54.431 82.9109C51.1137 85.3989 40.3325 83.7403 33.6979 84.5696C28.4455 85.6753 19.8759 81.5287 26.7869 76.8292C23.746 75.447 20.9816 74.6177 17.6643 74.3413C14.3471 71.8533 9.09468 68.8124 6.33027 67.7067C4.11874 66.3245 -1.41007 66.8774 2.18366 70.4711C5.77739 73.7884 15.4528 81.2523 17.3879 82.358C25.1282 87.0575 32.3157 90.3748 39.7796 94.5214C39.7796 94.5214 42.2676 95.9036 47.2435 93.9686C50.8372 92.3099 66.8708 83.4638 70.741 84.846C72.9525 85.6753 74.0583 86.2282 74.0583 86.2282L81.2457 73.2355Z" stroke="#333B41" stroke-width="1.5"/>
<path fill-rule="evenodd" clip-rule="evenodd" d="M34.5278 72.406C35.0807 71.3003 35.6336 70.471 36.4629 70.1945C37.2922 69.9181 37.5687 70.471 38.1216 71.0238C38.6744 71.8532 38.9509 72.1296 39.7802 72.6825C40.0566 72.9589 40.6095 72.9589 40.886 72.9589L40.3331 72.6825C39.5038 72.1296 38.9509 71.5767 39.2273 70.471C39.2273 70.1945 38.9509 69.6416 39.5038 69.6416C40.0566 69.9181 40.886 70.471 41.7153 70.471C41.7153 70.471 42.5446 70.7474 42.2682 70.471C42.2682 70.1945 41.7153 69.9181 41.4388 69.6416C39.7802 68.2594 39.7802 67.983 39.7802 66.0479C40.0566 63.2835 38.9509 61.072 37.0158 59.1369C32.5927 54.7138 34.5278 48.6321 37.8451 42.8269C40.886 37.5745 43.6504 36.7452 40.6095 30.387C39.5038 27.6226 37.5687 24.8582 37.2922 23.1996C37.2922 22.6467 37.2922 22.9231 37.2922 23.1996C37.0158 24.8582 38.1216 27.3462 39.2273 29.8342C41.7153 35.363 41.1624 35.9159 37.5687 40.8918C33.6985 45.8677 30.9341 51.1201 32.5927 56.6489C33.6985 60.5191 39.2273 64.3893 36.4629 66.8772C35.0807 67.983 33.1456 70.7474 32.8692 72.406C32.5927 73.2354 32.5927 73.2354 32.3163 73.7882C32.0399 74.0647 32.3163 74.0647 32.5927 74.0647C33.9749 73.7882 33.9749 73.2354 34.5278 72.406Z" fill="#333B41"/>
<path d="M52.8429 46.529L53.755 46.2684L53.7981 47.2161C53.9459 50.4683 52.5534 54.3664 50.2642 57.4425C49.0772 59.0375 47.6155 60.4545 45.9547 61.4487C47.0478 61.074 48.2508 60.3838 49.4679 59.1695C52.7026 55.6792 53.5945 51.2419 54.6307 45.5536C53.6652 45.6402 52.7139 45.8564 51.737 46.1392C51.096 46.3247 50.4522 46.5364 49.786 46.757C49.7457 46.7704 49.7052 46.7838 49.6648 46.7972C49.0473 47.0018 48.4107 47.2127 47.7579 47.4089C42.6293 49.3021 39.8538 51.6595 38.8454 54.3645C38.5951 55.654 38.63 56.8192 39.0684 57.696L39.1052 57.7696L39.1251 57.8495C39.2985 58.5427 40 59.1847 40.9413 59.7019C41.9925 58.713 42.7253 57.8296 43.446 56.9124C43.2707 57.0928 43.1068 57.265 42.9519 57.428C42.8261 57.5602 42.7062 57.6863 42.5907 57.8057C42.3944 58.0085 42.2043 58.1985 42.0295 58.3497C41.8721 58.4858 41.6524 58.6584 41.3991 58.7429L41.2102 58.8059L41.0149 58.7668C40.1201 58.5879 39.4476 58.0935 39.1719 57.2664C38.9248 56.5252 39.0477 55.6546 39.3357 54.7804C39.83 52.8473 41.3457 51.3363 43.5888 50.0545C45.8467 48.7643 48.9586 47.6388 52.8429 46.529Z" stroke="#333B41" stroke-width="1.5"/>
<path d="M26.1344 28.3643C24.6582 27.8492 23.3723 27.4005 21.9336 27.1376C21.9829 27.3788 22.0313 27.6174 22.0792 27.8534C22.2097 28.4962 22.3363 29.1198 22.4655 29.7246C22.4297 29.2771 22.422 28.8382 22.4444 28.4123L22.4942 27.4666L23.4034 27.7318C26.7359 28.7037 29.4286 29.6903 31.4057 30.8047C33.1697 31.7989 34.4573 32.9473 35.0631 34.3665C34.2232 32.1059 32.0121 30.1686 27.6813 28.8948L27.6684 28.8911L27.6557 28.8868C27.1203 28.7083 26.6171 28.5328 26.1344 28.3643ZM25.4595 37.3306C24.8749 36.544 24.3598 35.692 23.9279 34.809C24.5337 36.2532 25.3329 37.5474 26.4881 38.7026L26.498 38.7124L26.5074 38.7226C27.1438 39.4079 27.7828 39.8995 28.3999 40.2466C27.2794 39.4579 26.2884 38.4458 25.4595 37.3306ZM35.2389 37.5153C35.6733 36.6464 35.6858 35.8128 35.2763 34.9459C35.5594 35.7323 35.5714 36.5125 35.2859 37.1786C34.9798 37.893 34.3674 38.3874 33.6036 38.5784L33.3917 38.6313L33.1845 38.5623C33.1 38.5341 33.0191 38.4969 32.943 38.4549C33.1171 38.6533 33.3004 38.8554 33.4965 39.0632L33.5163 39.0582C34.4752 38.8185 34.9986 38.4027 35.1821 37.6688L35.202 37.589L35.2389 37.5153Z" stroke="#333B41" stroke-width="1.5"/>
<path d="M50.5566 28.6732C50.2311 29.0618 49.8833 29.4321 49.5153 29.7769C49.6818 29.6372 49.8494 29.4842 50.0175 29.3168C50.2081 29.1065 50.3874 28.892 50.5566 28.6732ZM53.7653 19.4627C53.768 19.448 53.7707 19.4334 53.7734 19.4187C52.2418 19.7171 50.6647 20.1954 48.8887 20.8614L48.8887 20.8615L48.8776 20.8654C45.4003 22.1073 43.4897 23.5076 42.6388 25.3816C43.2182 24.192 44.2605 23.2206 45.7292 22.3769C47.4375 21.3955 49.792 20.5463 52.851 19.712L53.7653 19.4627ZM43.6887 29.1639C43.3879 29.0636 43.128 28.9102 42.9149 28.7121C43.1031 29.0573 43.3626 29.3412 43.7254 29.5207C43.8308 29.4111 43.9321 29.3035 44.03 29.1976C43.996 29.2007 43.9612 29.2024 43.9258 29.2024H43.8041L43.6887 29.1639Z" stroke="#333B41" stroke-width="1.5"/>
</svg>
